<?xml version="1.0" encoding="UTF-8"?>
<svg width="1024px" height="1024px" viewBox="0 0 1024 1024" version="1.1" xmlns="http://www.w3.org/2000/svg" xmlns:xlink="http://www.w3.org/1999/xlink">
    <!-- Generator: Sketch 43.2 (39069) - http://www.bohemiancoding.com/sketch -->
    <title>icon</title>
    <desc>Created with Sketch.</desc>
    <defs></defs>
    <g id="Page-1" stroke="none" stroke-width="1" fill="none" fill-rule="evenodd">
        <g id="icon" fill-rule="nonzero">
            <g id="Group">
                <path d="M512.266706,115.824467 C730.927593,115.824467 908.182306,293.07918 908.182306,511.740067 C908.182306,730.400954 730.927593,907.655668 512.266706,907.655668 C293.605819,907.655668 116.351106,730.400954 116.351106,511.740067 C116.351106,293.07918 293.605819,115.824467 512.266706,115.824467" id="Shape" fill="#198CFF"></path>
                <path d="M17.3722054,511.740067 C17.3722054,238.409835 238.936473,16.8455666 512.266706,16.8455666 C785.596939,16.8455666 1007.16121,238.409835 1007.16121,511.740067 C1007.16121,785.086796 785.596939,1006.63457 512.266706,1006.63457 C238.936473,1006.63457 17.3722054,785.086796 17.3722054,511.740067 Z M116.351106,511.740067 C116.351106,730.400954 293.605819,907.655668 512.266706,907.655668 C730.927593,907.655668 908.182306,730.400954 908.182306,511.740067 C908.182306,293.07918 730.927593,115.824467 512.266706,115.824467 C293.605819,115.824467 116.351106,293.07918 116.351106,511.740067 Z" id="Shape" fill="#FFFFFF"></path>
                <path d="M0.875722038,511.740067 C0.875722038,794.176359 229.846911,1023.13105 512.266706,1023.13105 C794.686501,1023.13105 1023.65769,794.176359 1023.65769,511.740067 C1023.65769,229.320272 794.686501,0.349083265 512.266706,0.349083265 C229.846911,0.349083265 0.875722038,229.320272 0.875722038,511.740067 Z M17.3722054,511.740067 C17.3722054,238.442827 238.919977,16.8455666 512.266706,16.8455666 C785.613435,16.8455666 1007.16121,238.442827 1007.16121,511.740067 C1007.16121,785.037307 785.613435,1006.63457 512.266706,1006.63457 C238.919977,1006.63457 17.3722054,785.037307 17.3722054,511.740067 Z M132.847589,511.707074 C132.847589,721.245406 302.728374,891.093198 512.266706,891.093198 C721.805037,891.093198 891.685823,721.245406 891.685823,511.707074 C891.685823,302.185239 721.805037,132.32095 512.266706,132.32095 C302.728374,132.32095 132.847589,302.185239 132.847589,511.707074 L132.847589,511.707074 Z M116.351106,511.740067 C116.351106,293.112173 293.589323,115.824467 512.266706,115.824467 C730.944089,115.824467 908.182306,293.112173 908.182306,511.740067 C908.182306,730.367961 730.960586,907.655668 512.266706,907.655668 C293.572826,907.655668 116.351106,730.367961 116.351106,511.740067 Z" id="Shape" fill="#000000" opacity="0.5"></path>
                <path d="M682.510414,925.438877 C833.106811,861.25106 938.667808,712.188836 938.667808,538.497363 C938.667808,306.193885 749.849059,117.870031 516.935211,117.870031 C284.021362,117.870031 95.2191103,306.193885 95.2191103,538.497363 C95.2191103,770.107989 282.916098,957.953445 514.889647,959.05871 C514.163802,959.075206 513.470949,959.124696 512.7616,959.124696 C268.31671,959.124696 70.1609521,761.480329 70.1609521,517.678801 C70.1609521,273.877274 268.31671,76.2329067 512.7616,76.2329067 C757.206491,76.2329067 955.362249,273.877274 955.362249,517.678801 C955.362249,701.499115 842.691267,859.007538 682.510414,925.438877 Z M504.216422,964.073641 C777.282711,964.073641 998.632525,743.301204 998.632525,470.977257 C998.632525,445.572672 996.702436,420.62999 992.990727,396.264684 C1002.17927,433.843673 1007.16121,473.07231 1007.16121,513.472198 C1007.16121,785.829138 785.794896,1006.56858 512.745104,1006.56858 C265.132889,1006.56858 60.0651043,825.057775 23.9707987,588.184771 C76.7265525,803.909284 271.665496,964.073641 504.216422,964.073641 L504.216422,964.073641 Z" id="Shape" fill-opacity="0.1" fill="#000000"></path>
                <path d="M512.266706,214.803367 C676.258247,214.803367 809.203406,347.748526 809.203406,511.740067 C809.203406,675.731608 676.258247,808.676768 512.266706,808.676768 C348.275165,808.676768 215.330006,675.731608 215.330006,511.740067 C215.330006,347.748526 348.275165,214.803367 512.266706,214.803367 Z" id="Shape" fill="#F2F2F2"></path>
                <path d="M512.266706,214.803367 C348.275165,214.803367 215.330006,347.748526 215.330006,511.740067 C215.330006,675.731608 348.275165,808.676768 512.266706,808.676768 C676.258247,808.676768 809.203406,675.731608 809.203406,511.740067 C809.203406,347.748526 676.258247,214.803367 512.266706,214.803367 Z M512.266706,198.306883 C685.364306,198.306883 825.69989,338.642467 825.69989,511.740067 C825.69989,684.854163 685.364306,825.173251 512.266706,825.173251 C339.169106,825.173251 198.833522,684.854163 198.833522,511.740067 C198.833522,338.642467 339.169106,198.306883 512.266706,198.306883 Z" id="Shape" fill-opacity="0.25" fill="#000000"></path>
                <path d="M644.238573,511.740067 C644.238573,584.626117 585.152755,643.711934 512.266706,643.711934 C439.380657,643.711934 380.294839,584.626117 380.294839,511.740067 C380.294839,438.854018 439.380657,379.7682 512.266706,379.7682 C585.152755,379.7682 644.238573,438.854018 644.238573,511.740067 Z" id="Shape" fill-opacity="0.05" fill="#000000"></path>
                <path d="M627.742089,511.740067 C627.742089,447.964774 576.041999,396.264684 512.266706,396.264684 C448.491413,396.264684 396.791322,447.964774 396.791322,511.740067 C396.791322,575.51536 448.491413,627.215451 512.266706,627.215451 C576.041999,627.215451 627.742089,575.51536 627.742089,511.740067 Z M644.238573,511.740067 C644.238573,584.626117 585.152755,643.711934 512.266706,643.711934 C439.380657,643.711934 380.294839,584.626117 380.294839,511.740067 C380.294839,438.854018 439.380657,379.7682 512.266706,379.7682 C585.152755,379.7682 644.238573,438.854018 644.238573,511.740067 Z" id="Shape" fill-opacity="0.15" fill="#000000"></path>
                <path d="M644.238573,511.740067 C644.238573,438.854018 585.152755,379.7682 512.266706,379.7682 C439.380657,379.7682 380.294839,438.854018 380.294839,511.740067 C380.294839,584.626117 439.380657,643.711934 512.266706,643.711934 C585.152755,643.711934 644.238573,584.626117 644.238573,511.740067 Z M660.735056,511.740067 C660.735056,593.736873 594.263512,660.208417 512.266706,660.208417 C430.2699,660.208417 363.798356,593.736873 363.798356,511.740067 C363.798356,429.743262 430.2699,363.271717 512.266706,363.271717 C594.263512,363.271717 660.735056,429.743262 660.735056,511.740067 L660.735056,511.740067 Z" id="Shape" fill="#FFFFFF"></path>
                <polygon id="Shape" fill="#FFFFFF" points="446.280773 451.659875 446.280773 313.782267 578.252639 313.782267 578.252639 543.57828 545.259673 574.195753 578.252639 604.813226 578.252639 742.690834 446.280773 742.690834 446.280773 512.911317 479.273739 482.277348"></polygon>
                <polygon id="Shape" fill="#4D4D4D" points="446.280773 435.163391 446.280773 297.285784 578.252639 297.285784 578.252639 527.081797 545.259673 557.69927 578.252639 588.316743 578.252639 726.194351 446.280773 726.194351 446.280773 496.414834 479.273739 465.780865 446.280773 435.163391"></polygon>
                <polygon id="Shape" fill="#808080" points="462.777256 449.300878 462.777256 330.27875 561.756156 330.27875 561.756156 534.142292 537.011431 562.400768 537.011431 579.029223 561.756156 610.521009 561.756156 726.194351 462.777256 726.194351 462.777256 521.967887 487.521981 494.303284 487.521981 477.57585 462.777256 449.300878"></polygon>
            </g>
        </g>
    </g>
</svg>